<svg xmlns="http://www.w3.org/2000/svg" width="99" height="98.939"><g fill="#ffd500"><path d="M19.315 30.06a36.567 36.567 0 0150.508-11.108l.01.006-7.254 11.344a1.2 1.2 0 001.012 1.847l31.289-.039a1.2 1.2 0 001.1-1.685A50.27 50.27 0 0045.171.219c-.025 0-.052 0-.075.006a49.8 49.8 0 00-41.84 32.749 1.363 1.363 0 001.277 1.828h11.356a1.356 1.356 0 001.222-.78 36.818 36.818 0 012.204-3.962zM79.944 68.88a36.566 36.566 0 01-50.508 11.108l-.01-.006 7.254-11.344a1.2 1.2 0 00-1.013-1.847l-31.289.039a1.205 1.205 0 00-1.1 1.685A50.269 50.269 0 0054.087 98.72c.025 0 .052 0 .075-.006a49.8 49.8 0 0041.84-32.748 1.363 1.363 0 00-1.277-1.829H83.369a1.356 1.356 0 00-1.222.78 36.817 36.817 0 01-2.203 3.963z"/></g><g fill="#fff"><path d="M20.269 43.213h-7.4L9.891 60.174H4.448l2.978-16.961H.003l.842-4.692h20.269zM34.855 60.174h-15.1l3.819-21.653h15.1l-.842 4.692h-9.684l-.692 4.06h8l-.842 4.691h-8l-.6 3.519h9.684zM53.244 58.595a10.236 10.236 0 01-6.751 2q-4.361 0-6.045-2.015a5.626 5.626 0 01-1.2-3.819 13.033 13.033 0 01.241-2.376l2.436-13.864h5.413l-2.436 13.743a9.924 9.924 0 00-.12 1.564q0 2.106 2.526 2.105a3.545 3.545 0 002.406-.782 4.846 4.846 0 001.263-2.887l2.436-13.743h5.413L56.39 52.385a10.078 10.078 0 01-3.146 6.21zM79.603 38.521l-3.789 21.653h-5.443l-3.789-11.849-2.045 11.849h-5.443l3.819-21.653h5.594l3.729 11.067 1.955-11.067zM91.752 38.31q7.247 0 7.248 5.925a11.857 11.857 0 01-.21 2.135l-1.053 6.015a9.956 9.956 0 01-3.128 6.2 10.244 10.244 0 01-6.766 2.015q-4.361 0-6.075-2.015a5.723 5.723 0 01-1.173-3.819 13 13 0 01.241-2.376l1.053-6.015q1.412-8.064 9.863-8.065zm-3.1 17.623a3.543 3.543 0 002.406-.782 4.848 4.848 0 001.263-2.887l1.022-5.774a7.371 7.371 0 00.09-1.082 2.167 2.167 0 00-2.466-2.436q-3.1.06-3.7 3.518l-1.023 5.774a9.88 9.88 0 00-.121 1.564q.005 2.106 2.534 2.105z"/></g></svg>