<svg xmlns="http://www.w3.org/2000/svg" width="99" height="118"><g transform="translate(0 -.069)"><circle cx="49.5" cy="49.5" r="49.5" transform="translate(0 19.069)"/><path d="M0 .069h99v72H0z"/></g><g fill="#ffd500"><path d="M26.951 52.223a27.916 27.916 0 0138.56-8.48h.007l-5.538 8.66a.917.917 0 00.773 1.41l23.887-.03a.92.92 0 00.84-1.286 38.378 38.378 0 00-38.789-23.06h-.057a38.016 38.016 0 00-31.942 25 1.04 1.04 0 00.975 1.4h8.669a1.035 1.035 0 00.933-.6 28.106 28.106 0 011.682-3.014zM73.234 81.859a27.916 27.916 0 01-38.56 8.48h-.007l5.538-8.66a.917.917 0 00-.773-1.41l-23.887.03a.92.92 0 00-.84 1.286 38.377 38.377 0 0038.789 23.06h.057a38.017 38.017 0 0031.942-25 1.04 1.04 0 00-.975-1.4h-8.669a1.035 1.035 0 00-.933.6 28.116 28.116 0 01-1.682 3.014z"/></g><g fill="#fff"><path d="M27.679 62.264h-5.648l-2.273 12.949h-4.15l2.273-12.949h-5.673l.643-3.582h15.474zM38.814 75.213H27.289l2.916-16.531H41.73l-.643 3.582h-7.393l-.528 3.1h6.107l-.643 3.581h-6.108l-.459 2.686h7.393zM52.854 74.007a7.814 7.814 0 01-5.154 1.527q-3.329 0-4.615-1.538a4.3 4.3 0 01-.918-2.916 9.945 9.945 0 01.184-1.814l1.859-10.584h4.133l-1.86 10.492a7.576 7.576 0 00-.092 1.194q0 1.608 1.929 1.607a2.706 2.706 0 001.837-.6 3.7 3.7 0 00.964-2.2l1.86-10.492h4.133l-1.86 10.584a7.694 7.694 0 01-2.4 4.74zM72.977 58.682l-2.893 16.531h-4.156l-2.893-9.046-1.561 9.046h-4.156l2.916-16.531h4.27l2.847 8.449 1.492-8.449zM82.251 58.521q5.533 0 5.533 4.523a9.047 9.047 0 01-.161 1.63l-.8 4.592a7.6 7.6 0 01-2.388 4.73 7.82 7.82 0 01-5.166 1.538q-3.329 0-4.637-1.538a4.369 4.369 0 01-.9-2.916 9.923 9.923 0 01.184-1.814l.8-4.592q1.08-6.152 7.535-6.153zm-2.364 13.454a2.705 2.705 0 001.836-.6 3.7 3.7 0 00.965-2.2l.781-4.408a5.622 5.622 0 00.069-.826 1.654 1.654 0 00-1.883-1.86q-2.365.046-2.824 2.686l-.781 4.408a7.547 7.547 0 00-.092 1.194q0 1.606 1.929 1.606z"/></g></svg>